<svg xmlns="http://www.w3.org/2000/svg" xmlns:xlink="http://www.w3.org/1999/xlink" width="24" height="24" version="1.1" viewBox="0 0 24 24"><g id="Assets" fill="none" fill-rule="evenodd" stroke="none" stroke-width="1"><g id="assets" transform="translate(-625.000000, -1051.000000)"><g id="components/buttons/newplaylist/create-playlist-1" transform="translate(625.000000, 1051.000000)"><g id="components/buttons/create-playlist-1"><circle id="Oval" cx="12" cy="12" r="12" fill="#23AD1A"/><g id="icon/Save"><rect id="bound" width="24" height="24" x="0" y="0"/><path id="Path" fill="#FFF" fill-rule="evenodd" d="M13.65,10.25 L18.025,10.25 C18.5082492,10.25 18.9,10.6417508 18.9,11.125 L18.9,12.875 C18.9,13.3582492 18.5082492,13.75 18.025,13.75 L13.65,13.75 L13.65,18.125 C13.65,18.6082492 13.2582492,19 12.775,19 L11.025,19 C10.5417508,19 10.15,18.6082492 10.15,18.125 L10.15,13.75 L5.775,13.75 C5.29175084,13.75 4.9,13.3582492 4.9,12.875 L4.9,11.125 C4.9,10.6417508 5.29175084,10.25 5.775,10.25 L10.15,10.25 L10.15,5.875 C10.15,5.39175084 10.5417508,5 11.025,5 L12.775,5 C13.2582492,5 13.65,5.39175084 13.65,5.875 L13.65,10.25 Z"/></g></g></g></g></g></svg>