<svg xmlns="http://www.w3.org/2000/svg" xmlns:xlink="http://www.w3.org/1999/xlink" width="24" height="24" version="1.1" viewBox="0 0 24 24"><g id="Assets" fill="none" fill-rule="evenodd" stroke="none" stroke-width="1"><g id="assets" transform="translate(-1032.000000, -943.000000)"><g id="icon/Filetype" transform="translate(1032.000000, 943.000000)"><path id="Document" fill="#F2F2F4" d="M20.9473684,24 L3.05263158,24 C2.47105263,24 2,23.5330435 2,22.9565217 L2,1.04347826 C2,0.466956522 2.47105263,0 3.05263158,0 L15.6842105,0 L22,6.26086957 L22,22.9565217 C22,23.5330435 21.5289474,24 20.9473684,24 Z"/><path id="Combined-Shape" fill="#B989E2" fill-rule="nonzero" d="M2,9.082 L2,11 L22,11 L22,9.083 L24,11 L22.4347826,13 L1.56521739,13 L0,11 L2,9.082 Z"/><path id="Path" fill="#7E1BCC" d="M22.9565217,21 L1.04347826,21 C0.466956522,21 0,20.5027778 0,19.8888889 L0,11 L24,11 L24,19.8888889 C24,20.5027778 23.5330435,21 22.9565217,21 Z"/><path id="Corner" fill="#DAD9E0" d="M16,0 L16,5 C16,5.5525 16.4475,6 17,6 L22,6 L16,0 Z"/><path id="Shape" fill="#F7F7F9" fill-rule="nonzero" d="M2,11 L0,11 L2,9.08333333 L2,11 Z M22,11 L22,9.08333333 L24,11 L22,11 Z" opacity=".5"/><path id="Combined-Shape" fill="#FFF" fill-rule="nonzero" d="M3.66796875,13.3125 L4.3828125,17.1914062 L5.24609375,13.3125 L6.3203125,13.3125 L7.1875,17.1914062 L7.90234375,13.3125 L9.15625,13.3125 L7.921875,19 L6.62890625,19 L5.78125,15.4023438 L4.94140625,19 L3.6484375,19 L2.41015625,13.3125 L3.66796875,13.3125 Z M11.40625,13.3125 L12.7734375,17.3203125 L14.140625,13.3125 L15.8046875,13.3125 L15.8046875,19 L14.5351562,19 L14.5351562,17.6015625 L14.6601562,14.8476562 L13.1992188,19 L12.3476562,19 L10.8867188,14.8476562 L11.0117188,17.6015625 L11.0117188,19 L9.74609375,19 L9.74609375,13.3125 L11.40625,13.3125 Z M19.5820312,13.3125 L21.6953125,19 L20.34375,19 L19.984375,17.9023438 L18,17.9023438 L17.6445312,19 L16.2929688,19 L18.3984375,13.3125 L19.5820312,13.3125 Z M18.9921875,14.8515625 L18.3359375,16.8789062 L19.6523438,16.8789062 L18.9921875,14.8515625 Z"/></g></g></g></svg>