<svg xmlns="http://www.w3.org/2000/svg" xmlns:xlink="http://www.w3.org/1999/xlink" id="Layer_1" x="0" y="0" version="1.1" viewBox="0 0 220 220" xml:space="preserve" style="enable-background:new 0 0 220 220"><style type="text/css">.st0{filter:url(#filter-2)}.st1,.st2{fill-rule:evenodd;clip-rule:evenodd}.st2{fill:#bebcc9}.st3{filter:url(#Adobe_OpacityMaskFilter)}.st4,.st5{fill-rule:evenodd;clip-rule:evenodd;fill:#fff}.st5{mask:url(#mask-4_1_)}.st6{filter:url(#Adobe_OpacityMaskFilter_1_)}.st7{mask:url(#mask-4_2_);fill-rule:evenodd;clip-rule:evenodd;fill:#fff;stroke:#bebcc9;stroke-width:4.2857}.st8{filter:url(#Adobe_OpacityMaskFilter_2_)}.st9{mask:url(#mask-4_3_);fill-rule:evenodd;clip-rule:evenodd;fill:#bebcc9}</style><filter id="filter-2" width="105.1%" height="105.1%" x="-2.6%" y="-1.6%" filterUnits="objectBoundingBox"><feMorphology in="SourceAlpha" operator="erode" radius="1" result="shadowSpreadOuter1"/><feOffset dx="0" dy="2" in="shadowSpreadOuter1" result="shadowOffsetOuter1"/><feGaussianBlur in="shadowOffsetOuter1" result="shadowBlurOuter1" stdDeviation="2.5"/><feColorMatrix in="shadowBlurOuter1" type="matrix" values="0 0 0 0 0.521568627 0 0 0 0 0.505882353 0 0 0 0 0.6 0 0 0 0.5 0"/></filter><g><g id="xAlpha-Onboarding-step-3"><g transform="translate(-178.000000, -281.000000) translate(181.000000, 282.000000)"><g id="Oval"><g class="st0"><circle id="path-1_1_" cx="107" cy="109" r="110" class="st1"/></g><g><circle cx="107" cy="109" r="110" class="st2"/></g></g><g><circle cx="107" cy="109" r="105.1" class="st2"/></g><defs><filter id="Adobe_OpacityMaskFilter" width="112.9" height="156.2" x="50" y="62.8" filterUnits="userSpaceOnUse"><feColorMatrix type="matrix" values="1 0 0 0 0 0 1 0 0 0 0 0 1 0 0 0 0 0 1 0"/></filter></defs><mask id="mask-4_1_" width="112.9" height="156.2" x="50" y="62.8" maskUnits="userSpaceOnUse"><g class="st3"><circle id="path-3_1_" cx="107" cy="109" r="105.1" class="st4"/></g></mask><path id="Combined-Shape" d="M148.2,219H63.6c-15.9,0-13.5-16.9-13.5-27.8c0-30.2,25.7-55.7,56.3-55.7 c30.6,0,56.3,25.4,56.3,55.7C162.9,202.1,165.3,219,148.2,219L148.2,219z M105,130.6c-18.4,0-34.4-15.7-34.4-33.9 s16-33.9,34.4-33.9s34.4,15.7,34.4,33.9S123.5,130.6,105,130.6z" class="st5"/><defs><filter id="Adobe_OpacityMaskFilter_1_" width="46" height="46" x="139" y="141" filterUnits="userSpaceOnUse"><feColorMatrix type="matrix" values="1 0 0 0 0 0 1 0 0 0 0 0 1 0 0 0 0 0 1 0"/></filter></defs><mask id="mask-4_2_" width="46" height="46" x="139" y="141" maskUnits="userSpaceOnUse"><g class="st6"><circle id="path-3_2_" cx="107" cy="109" r="105.1" class="st4"/></g></mask><circle cx="162" cy="164" r="20.9" class="st7"/><defs><filter id="Adobe_OpacityMaskFilter_2_" width="15.7" height="15.7" x="154" y="156.1" filterUnits="userSpaceOnUse"><feColorMatrix type="matrix" values="1 0 0 0 0 0 1 0 0 0 0 0 1 0 0 0 0 0 1 0"/></filter></defs><mask id="mask-4_3_" width="15.7" height="15.7" x="154" y="156.1" maskUnits="userSpaceOnUse"><g class="st8"><circle id="path-3_3_" cx="107" cy="109" r="105.1" class="st4"/></g></mask><path id="save" d="M163.9,162h3.9c1.1,0,2,0.9,2,2s-0.9,2-2,2h-3.9v3.9c0,1.1-0.9,2-2,2s-2-0.9-2-2V166H156 c-1.1,0-2-0.9-2-2s0.9-2,2-2h3.9v-3.9c0-1.1,0.9-2,2-2s2,0.9,2,2V162z" class="st9"/></g></g></g></svg>