<svg xmlns="http://www.w3.org/2000/svg" xmlns:xlink="http://www.w3.org/1999/xlink" width="1492" height="328" version="1.1" viewBox="0 0 1492 328"><title>Lines</title><desc>Created with Sketch.</desc><g id="Page-1" fill="none" fill-opacity=".1" fill-rule="evenodd" stroke="none" stroke-width="1" opacity=".5"><g id="Guide" fill="#858199" transform="translate(-917.000000, -1511.000000)"><g id="Lines" transform="translate(1663.000000, 1675.000000) rotate(-3.000000) translate(-1663.000000, -1675.000000) translate(923.000000, 1550.000000)"><rect id="Rectangle" width="1480" height="2" x="0" y="128"/><rect id="Rectangle" width="1480" height="2" x="0" y="0"/><rect id="Rectangle" width="1480" height="2" x="0" y="192"/><rect id="Rectangle" width="1480" height="2" x="0" y="64"/><rect id="Rectangle" width="1480" height="2" x="0" y="160"/><rect id="Rectangle" width="1480" height="2" x="0" y="32"/><rect id="Rectangle" width="1480" height="2" x="0" y="224"/><rect id="Rectangle" width="1480" height="2" x="0" y="96"/><rect id="Rectangle" width="1480" height="2" x="0" y="144"/><rect id="Rectangle" width="1480" height="2" x="0" y="16"/><rect id="Rectangle" width="1480" height="2" x="0" y="208"/><rect id="Rectangle" width="1480" height="2" x="0" y="80"/><rect id="Rectangle" width="1480" height="2" x="0" y="176"/><rect id="Rectangle" width="1480" height="2" x="0" y="48"/><rect id="Rectangle" width="1480" height="2" x="0" y="240"/><rect id="Rectangle" width="1480" height="2" x="0" y="112"/><rect id="Rectangle" width="1480" height="2" x="0" y="136"/><rect id="Rectangle" width="1480" height="2" x="0" y="8"/><rect id="Rectangle" width="1480" height="2" x="0" y="200"/><rect id="Rectangle" width="1480" height="2" x="0" y="72"/><rect id="Rectangle" width="1480" height="2" x="0" y="168"/><rect id="Rectangle" width="1480" height="2" x="0" y="40"/><rect id="Rectangle" width="1480" height="2" x="0" y="232"/><rect id="Rectangle" width="1480" height="2" x="0" y="104"/><rect id="Rectangle" width="1480" height="2" x="0" y="152"/><rect id="Rectangle" width="1480" height="2" x="0" y="24"/><rect id="Rectangle" width="1480" height="2" x="0" y="216"/><rect id="Rectangle" width="1480" height="2" x="0" y="88"/><rect id="Rectangle" width="1480" height="2" x="0" y="184"/><rect id="Rectangle" width="1480" height="2" x="0" y="56"/><rect id="Rectangle" width="1480" height="2" x="0" y="248"/><rect id="Rectangle" width="1480" height="2" x="0" y="120"/></g></g></g></svg>